<svg width="24" height="24" viewBox="0 0 24 24" fill="none" xmlns="http://www.w3.org/2000/svg">
<g id="clean">
<path id="Vector" d="M2 15H18.5C20.43 15 22 16.57 22 18.5C22 20.43 20.43 22 18.5 22C16.57 22 15 20.43 15 18.5V18M2 12H18.5C20.42 12 22 10.43 22 8.5C22 6.58 20.42 5 18.5 5C17.5726 5.00264 16.6838 5.37223 16.028 6.02804C15.3722 6.68385 15.0026 7.57255 15 8.5V9" stroke="#F8F8F8" stroke-width="1.5" stroke-miterlimit="10" stroke-linecap="round" stroke-linejoin="round"/>
<path id="Vector_2" d="M2 9H9.31C9.84203 9 10.3621 8.84223 10.8045 8.54665C11.2469 8.25107 11.5916 7.83095 11.7952 7.33942C11.9988 6.84789 12.0521 6.30702 11.9483 5.78521C11.8445 5.2634 11.5883 4.78409 11.2121 4.40788C10.8359 4.03168 10.3566 3.77548 9.83479 3.67169C9.31298 3.56789 8.77211 3.62116 8.28058 3.82476C7.78905 4.02836 7.36893 4.37315 7.07335 4.81552C6.77777 5.25788 6.62 5.77797 6.62 6.31V6.69" stroke="#F8F8F8" stroke-width="1.5" stroke-miterlimit="10" stroke-linecap="round" stroke-linejoin="round"/>
</g>
</svg>
